<svg width="134" height="39" viewBox="0 0 134 39" fill="none" xmlns="http://www.w3.org/2000/svg">
<path d="M28.16 38.92C26.5867 38.92 24.9467 38.64 23.24 38.08C21.56 37.5467 20.0267 36.8 18.64 35.84C17.6533 35.12 16.7467 34.4533 15.92 33.84C15.12 33.2533 14.2533 32.5333 13.32 31.68C12.76 31.2 12.1067 30.6533 11.36 30.04C10.64 29.4267 9.77333 28.9333 8.76 28.56C7.88 28.24 6.93333 27.7733 5.92 27.16C4.93333 26.5467 4 25.76 3.12 24.8C2.26667 23.84 1.56 22.6667 1 21.28C0.44 19.8933 0.16 18.2667 0.16 16.4C0.16 14.5867 0.453333 12.8533 1.04 11.2C1.65333 9.52 2.56 8.02667 3.76 6.72C4.96 5.41333 6.44 4.37333 8.2 3.6C9.98667 2.82667 12.04 2.44 14.36 2.44C16.2267 2.44 17.9867 2.76 19.64 3.4C21.32 4.01333 22.8 4.90667 24.08 6.08C25.36 7.22667 26.3733 8.61333 27.12 10.24C27.8667 11.84 28.24 13.6267 28.24 15.6C28.24 17.44 27.92 19.2133 27.28 20.92C26.6667 22.6 25.7333 24.1067 24.48 25.44C23.2267 26.7467 21.68 27.76 19.84 28.48C19.5467 28.56 19.4 28.7067 19.4 28.92C19.4 29.0533 19.4667 29.1733 19.6 29.28C20.24 29.8933 20.8667 30.48 21.48 31.04C22.12 31.6 22.9333 32.2933 23.92 33.12C25.2533 34.16 26.48 34.9067 27.6 35.36C28.72 35.8133 29.84 36.04 30.96 36.04C31.2533 36.04 31.52 36.0267 31.76 36C32 36 32.2 35.9867 32.36 35.96C32.52 35.9067 32.6667 35.8667 32.8 35.84C32.96 35.84 33.12 35.84 33.28 35.84C34 35.84 34.36 36.1067 34.36 36.64C34.36 36.88 34.2933 37.08 34.16 37.24C34.0533 37.4267 33.8533 37.6133 33.56 37.8C33 38.1733 32.2533 38.4533 31.32 38.64C30.3867 38.8267 29.3333 38.92 28.16 38.92ZM14.72 27.64C17.0133 27.64 18.7333 26.7467 19.88 24.96C21.0267 23.1733 21.6 20.7333 21.6 17.64C21.6 15.96 21.44 14.3333 21.12 12.76C20.8267 11.16 20.3467 9.74667 19.68 8.52C19.04 7.26667 18.2133 6.28 17.2 5.56C16.1867 4.81333 14.9867 4.44 13.6 4.44C11.3333 4.44 9.62667 5.33333 8.48 7.12C7.33333 8.88 6.76 11.28 6.76 14.32C6.76 16.0267 6.92 17.68 7.24 19.28C7.56 20.8533 8.04 22.2667 8.68 23.52C9.32 24.7733 10.1333 25.7733 11.12 26.52C12.1333 27.2667 13.3333 27.64 14.72 27.64ZM43.2306 29.84C43.0173 29.84 42.9106 29.7067 42.9106 29.44C42.9106 29.12 42.9373 28.6933 42.9906 28.16C43.0706 27.6267 43.1106 27.2133 43.1106 26.92C43.1106 26.8133 43.0973 26.72 43.0706 26.64C43.0706 26.56 43.0573 26.5067 43.0306 26.48C42.3106 27.36 41.3906 28.1067 40.2706 28.72C39.1506 29.3067 37.964 29.6 36.7106 29.6C35.884 29.6 35.1373 29.36 34.4706 28.88C33.804 28.3733 33.2706 27.6933 32.8706 26.84C32.4973 25.9867 32.3106 25.0267 32.3106 23.96V16.48C32.3106 15.8667 32.1906 15.3733 31.9506 15C31.7373 14.6267 31.324 14.3733 30.7106 14.24C30.5506 14.2133 30.404 14.1467 30.2706 14.04C30.164 13.9067 30.1106 13.72 30.1106 13.48C30.1106 13.2933 30.164 13.1467 30.2706 13.04C30.3773 12.9067 30.524 12.8267 30.7106 12.8C31.8306 12.7467 32.844 12.64 33.7506 12.48C34.6573 12.2933 35.5773 12.08 36.5106 11.84C36.644 11.8133 36.7773 11.7867 36.9106 11.76C37.0706 11.7067 37.2173 11.68 37.3506 11.68C37.724 11.68 37.8973 11.8667 37.8706 12.24C37.764 12.8533 37.684 13.3733 37.6306 13.8C37.5773 14.2 37.5506 14.7067 37.5506 15.32V23C37.5506 23.64 37.6573 24.2 37.8706 24.68C38.084 25.16 38.3773 25.5333 38.7506 25.8C39.124 26.0667 39.5373 26.2133 39.9906 26.24C40.4173 26.24 40.8306 26.1867 41.2306 26.08C41.6573 25.9733 42.0573 25.7333 42.4306 25.36C42.5906 25.2267 42.764 24.96 42.9506 24.56C43.1373 24.1333 43.2306 23.5733 43.2306 22.88V16.44C43.2306 15.96 43.1373 15.5733 42.9506 15.28C42.764 14.96 42.5106 14.7067 42.1906 14.52C41.8706 14.3333 41.4973 14.2267 41.0706 14.2C40.7773 14.1733 40.5373 14.1067 40.3506 14C40.1906 13.8667 40.1106 13.64 40.1106 13.32C40.1106 13.0533 40.204 12.8533 40.3906 12.72C40.5773 12.5867 40.804 12.52 41.0706 12.52C42.4306 12.44 43.5106 12.3733 44.3106 12.32C45.1106 12.24 45.764 12.16 46.2706 12.08C46.7773 12 47.284 11.9067 47.7906 11.8C47.8706 11.7733 47.964 11.7467 48.0706 11.72C48.1773 11.6933 48.2573 11.68 48.3106 11.68C48.7106 11.68 48.9106 11.84 48.9106 12.16C48.9106 12.24 48.8973 12.3333 48.8706 12.44C48.844 12.5467 48.804 12.6533 48.7506 12.76C48.724 12.8667 48.684 13.1067 48.6306 13.48C48.604 13.8267 48.564 14.2 48.5106 14.6C48.484 15 48.4706 15.32 48.4706 15.56V24.84C48.4706 25.4533 48.5373 25.8667 48.6706 26.08C48.8306 26.2667 49.004 26.36 49.1906 26.36C49.324 26.36 49.524 26.3733 49.7906 26.4C50.0573 26.4 50.2306 26.4 50.3106 26.4C50.5506 26.4 50.7373 26.4667 50.8706 26.6C51.004 26.7333 51.0706 26.9067 51.0706 27.12C51.0706 27.36 51.0173 27.56 50.9106 27.72C50.8306 27.8533 50.6573 27.9333 50.3906 27.96C49.1106 28.0667 47.9506 28.2933 46.9106 28.64C45.8973 28.96 45.0173 29.2667 44.2706 29.56C44.1106 29.6133 43.9373 29.6667 43.7506 29.72C43.564 29.8 43.3906 29.84 43.2306 29.84ZM52.9019 29.12C52.7419 29.12 52.5952 29.08 52.4619 29C52.3285 28.8933 52.2619 28.76 52.2619 28.6C52.2619 28.3867 52.3285 28.2133 52.4619 28.08C52.5952 27.9467 52.7685 27.8533 52.9819 27.8C53.6752 27.64 54.1552 27.4667 54.4219 27.28C54.7152 27.0667 54.8619 26.7467 54.8619 26.32V17.68C54.8619 16.7733 54.7152 16.1333 54.4219 15.76C54.1552 15.36 53.7285 15.12 53.1419 15.04C52.9819 15.0133 52.8619 14.9333 52.7819 14.8C52.7019 14.6667 52.6619 14.5067 52.6619 14.32C52.6619 13.92 52.8085 13.6933 53.1019 13.64C54.4885 13.3733 55.7152 13 56.7819 12.52C57.8752 12.04 58.7152 11.6667 59.3019 11.4C59.7285 11.1867 59.9952 11.08 60.1019 11.08C60.4485 11.08 60.6219 11.24 60.6219 11.56C60.5952 12.0133 60.5285 12.5867 60.4219 13.28C60.3419 13.9467 60.2619 14.64 60.1819 15.36C60.1285 16.08 60.1019 16.7733 60.1019 17.44V26.28C60.1019 26.6533 60.2352 26.9467 60.5019 27.16C60.7952 27.3733 61.3019 27.5867 62.0219 27.8C62.2352 27.88 62.4085 27.9733 62.5419 28.08C62.6752 28.1867 62.7419 28.3467 62.7419 28.56C62.7419 28.9067 62.5419 29.08 62.1419 29.08C61.6352 29.08 61.1019 29.0667 60.5419 29.04C59.9819 29.0133 59.4352 28.9867 58.9019 28.96C58.3952 28.9333 57.9019 28.92 57.4219 28.92C56.9685 28.92 56.4885 28.9333 55.9819 28.96C55.5019 28.9867 54.9952 29.0133 54.4619 29.04C53.9552 29.0933 53.4352 29.12 52.9019 29.12ZM57.3019 9.28C56.4752 9.28 55.7419 8.97333 55.1019 8.36C54.4885 7.74667 54.1819 7.01333 54.1819 6.16C54.1819 5.25333 54.4885 4.49333 55.1019 3.88C55.7419 3.26667 56.4752 2.96 57.3019 2.96C58.2352 2.96 59.0085 3.26667 59.6219 3.88C60.2352 4.49333 60.5419 5.25333 60.5419 6.16C60.5419 7.01333 60.2352 7.74667 59.6219 8.36C59.0085 8.97333 58.2352 9.28 57.3019 9.28ZM71.6588 29.56C70.2454 29.56 68.9654 29.1867 67.8188 28.44C66.6988 27.6667 65.8054 26.64 65.1388 25.36C64.4988 24.0533 64.1788 22.5867 64.1788 20.96C64.1788 19.2267 64.5788 17.6667 65.3788 16.28C66.1788 14.8933 67.2454 13.7867 68.5788 12.96C69.9388 12.1333 71.4454 11.72 73.0988 11.72C75.2854 11.72 77.0988 12.44 78.5388 13.88C78.7788 14.1467 78.8988 14.3867 78.8988 14.6C78.8988 14.76 78.7788 15 78.5388 15.32C78.2988 15.6133 78.0321 15.88 77.7388 16.12C77.4454 16.36 77.1921 16.48 76.9788 16.48C76.7388 16.48 76.4988 16.4133 76.2588 16.28C76.0454 16.12 75.8321 15.9467 75.6188 15.76C74.9254 15.1733 74.2188 14.7067 73.4987 14.36C72.8054 13.9867 72.2054 13.8 71.6988 13.8C70.6854 13.8 69.9121 14.2267 69.3788 15.08C68.8721 15.9067 68.6188 17.2667 68.6188 19.16C68.6188 20.4667 68.8188 21.6 69.2188 22.56C69.6454 23.4933 70.2454 24.2133 71.0188 24.72C71.7921 25.2267 72.7254 25.48 73.8188 25.48C74.6188 25.48 75.3121 25.36 75.8988 25.12C76.4854 24.8533 77.0988 24.4533 77.7388 23.92C77.8721 23.84 77.9788 23.76 78.0588 23.68C78.1654 23.6 78.2854 23.56 78.4188 23.56C78.7388 23.56 78.8988 23.7733 78.8988 24.2C78.8988 24.3067 78.8721 24.4667 78.8188 24.68C78.7921 24.8667 78.7121 25.08 78.5788 25.32C78.3388 25.8533 77.8721 26.4533 77.1788 27.12C76.5121 27.7867 75.7121 28.36 74.7788 28.84C73.8454 29.32 72.8054 29.56 71.6588 29.56ZM80.7916 29.12C80.2582 29.12 79.9916 28.9333 79.9916 28.56C79.9916 28.3467 80.0716 28.1867 80.2316 28.08C80.3916 27.9467 80.6182 27.84 80.9116 27.76C81.3116 27.6267 81.6582 27.48 81.9516 27.32C82.2716 27.16 82.4316 26.7867 82.4316 26.2V7C82.4316 6.25333 82.3382 5.62667 82.1516 5.12C81.9649 4.58667 81.5382 4.25333 80.8716 4.12C80.5782 4.06667 80.4316 3.86667 80.4316 3.52C80.4316 3.17333 80.5649 2.97333 80.8316 2.92C81.4982 2.78667 82.2182 2.6 82.9916 2.36C83.7916 2.09333 84.5516 1.82666 85.2716 1.56C85.9916 1.26667 86.5516 1.05333 86.9516 0.919999C87.1649 0.839999 87.3382 0.799998 87.4716 0.799998C87.6316 0.799998 87.7382 0.853332 87.7916 0.959999C87.8449 1.04 87.8716 1.14667 87.8716 1.28C87.8716 1.49333 87.8316 1.85333 87.7516 2.36C87.6982 2.86667 87.6582 3.42667 87.6316 4.04L87.6716 19C87.6716 19.32 87.7916 19.48 88.0316 19.48C88.1116 19.48 88.2049 19.4533 88.3116 19.4C88.4449 19.32 88.5649 19.24 88.6716 19.16C89.6582 18.3067 90.5382 17.44 91.3116 16.56C92.0849 15.68 92.6049 15.04 92.8716 14.64C92.9782 14.48 93.0582 14.3467 93.1116 14.24C93.1916 14.1333 93.2316 14.04 93.2316 13.96C93.2316 13.8267 93.1249 13.6933 92.9116 13.56C92.6982 13.4 92.3782 13.2933 91.9516 13.24C91.6316 13.1867 91.4716 13.04 91.4716 12.8C91.4716 12.56 91.5649 12.4133 91.7516 12.36C91.9649 12.28 92.1649 12.24 92.3516 12.24H94.3116C94.7916 12.24 95.4182 12.2267 96.1916 12.2C96.9649 12.1467 97.7249 12.08 98.4716 12C99.2182 11.92 99.7516 11.88 100.072 11.88C100.365 11.88 100.512 12.0267 100.512 12.32C100.512 12.5333 100.432 12.72 100.272 12.88C100.112 13.0133 99.8849 13.1067 99.5916 13.16C99.1382 13.2667 98.6049 13.4533 97.9916 13.72C97.3782 13.9867 96.7649 14.2933 96.1516 14.64C95.6982 14.88 95.2049 15.1867 94.6716 15.56C94.1649 15.9067 93.6582 16.28 93.1516 16.68C92.6716 17.08 92.2316 17.4667 91.8316 17.84C91.6982 17.9733 91.6316 18.12 91.6316 18.28C91.6316 18.36 91.6582 18.44 91.7116 18.52C91.7649 18.5733 91.8182 18.64 91.8716 18.72C92.5116 19.5467 93.1249 20.36 93.7116 21.16C94.2982 21.96 94.8849 22.7333 95.4716 23.48C96.0582 24.2 96.6582 24.92 97.2716 25.64C97.7249 26.12 98.2716 26.56 98.9116 26.96C99.5516 27.36 100.085 27.64 100.512 27.8C100.725 27.88 100.952 27.9733 101.192 28.08C101.458 28.1867 101.592 28.3467 101.592 28.56C101.592 28.9333 101.298 29.12 100.712 29.12C99.1116 29.12 97.5382 29.0933 95.9916 29.04C94.4716 29.0133 93.0449 29 91.7116 29C91.1782 29 90.9116 28.8133 90.9116 28.44C90.9116 28.2267 90.9916 28.0667 91.1516 27.96C91.3116 27.8533 91.5249 27.7467 91.7916 27.64C92.0316 27.56 92.1916 27.4667 92.2716 27.36C92.3782 27.2533 92.4449 27.1333 92.4716 27C92.4716 26.8933 92.4182 26.7733 92.3116 26.64C92.2316 26.48 92.1249 26.3067 91.9916 26.12L88.1116 20.76C88.0316 20.7067 87.9649 20.68 87.9116 20.68C87.7516 20.7067 87.6716 20.8 87.6716 20.96C87.6716 21.36 87.6716 21.7733 87.6716 22.2C87.6716 22.6267 87.6716 23.04 87.6716 23.44C87.6716 23.8667 87.6716 24.3333 87.6716 24.84C87.6716 25.32 87.6716 25.7867 87.6716 26.24C87.6716 26.6933 87.7649 27.0267 87.9516 27.24C88.1649 27.4267 88.4716 27.5867 88.8716 27.72C89.0849 27.8 89.2716 27.9067 89.4316 28.04C89.6182 28.1467 89.7116 28.3067 89.7116 28.52C89.7116 28.7067 89.6316 28.8533 89.4716 28.96C89.3382 29.0667 89.1782 29.12 88.9916 29.12C88.4582 29.12 87.9649 29.0933 87.5116 29.04C87.0849 29.0133 86.6716 28.9867 86.2716 28.96C85.8716 28.9333 85.4316 28.92 84.9516 28.92C84.4982 28.92 84.0449 28.9333 83.5916 28.96C83.1649 28.9867 82.7249 29.0133 82.2716 29.04C81.8182 29.0933 81.3249 29.12 80.7916 29.12ZM108.807 29.56C107.367 29.56 106.074 29.1867 104.927 28.44C103.807 27.6667 102.914 26.6267 102.247 25.32C101.607 23.9867 101.287 22.48 101.287 20.8C101.287 19.12 101.674 17.6 102.447 16.24C103.221 14.8533 104.274 13.76 105.607 12.96C106.941 12.1333 108.407 11.72 110.007 11.72C111.154 11.72 112.181 11.9733 113.087 12.48C113.994 12.96 114.714 13.6133 115.247 14.44C115.807 15.2667 116.087 16.2 116.087 17.24C116.087 18.2533 115.674 18.76 114.847 18.76H106.847C106.474 18.76 106.194 18.8667 106.007 19.08C105.847 19.2933 105.767 19.6533 105.767 20.16C105.767 21.1733 105.994 22.1067 106.447 22.96C106.901 23.7867 107.514 24.44 108.287 24.92C109.061 25.4 109.954 25.64 110.967 25.64C111.741 25.64 112.447 25.4933 113.087 25.2C113.754 24.9067 114.407 24.5067 115.047 24C115.154 23.92 115.247 23.8533 115.327 23.8C115.434 23.72 115.527 23.68 115.607 23.68C115.874 23.68 116.007 23.8533 116.007 24.2C116.007 24.4933 115.901 24.8933 115.687 25.4C115.421 26.0667 114.967 26.7333 114.327 27.4C113.714 28.04 112.941 28.56 112.007 28.96C111.074 29.36 110.007 29.56 108.807 29.56ZM106.847 17.08H109.247C109.994 17.08 110.514 17.0667 110.807 17.04C111.101 17.0133 111.367 16.96 111.607 16.88C111.741 16.8267 111.847 16.6933 111.927 16.48C112.007 16.2667 112.047 16.0267 112.047 15.76C112.047 15.04 111.794 14.4533 111.287 14C110.807 13.5467 110.207 13.32 109.487 13.32C108.927 13.32 108.394 13.48 107.887 13.8C107.407 14.0933 107.007 14.4933 106.687 15C106.394 15.48 106.261 15.9867 106.287 16.52C106.287 16.8933 106.474 17.08 106.847 17.08ZM118.727 29.12C118.514 29.12 118.327 29.08 118.167 29C118.007 28.8933 117.927 28.7467 117.927 28.56C117.927 28.3467 118.007 28.1867 118.167 28.08C118.327 27.9467 118.554 27.84 118.847 27.76C119.434 27.5733 119.82 27.3733 120.007 27.16C120.22 26.9467 120.327 26.64 120.327 26.24V17.04C120.327 16.48 120.247 16.0267 120.087 15.68C119.954 15.3067 119.634 15.0533 119.127 14.92C118.994 14.8667 118.874 14.8 118.767 14.72C118.66 14.6133 118.607 14.44 118.607 14.2C118.607 13.8267 118.767 13.6 119.087 13.52C119.94 13.3067 120.874 13.0267 121.887 12.68C122.927 12.3333 123.807 11.9867 124.527 11.64C124.66 11.5333 124.82 11.44 125.007 11.36C125.22 11.2533 125.367 11.2 125.447 11.2C125.687 11.2 125.807 11.3467 125.807 11.64C125.807 11.7733 125.794 12.0533 125.767 12.48C125.767 12.88 125.754 13.2933 125.727 13.72C125.727 14.1467 125.714 14.5067 125.687 14.8C125.687 15.04 125.74 15.16 125.847 15.16C126.247 14.6 126.714 14.0533 127.247 13.52C127.807 12.9867 128.407 12.5467 129.047 12.2C129.687 11.8533 130.314 11.68 130.927 11.68C131.86 11.68 132.514 11.8533 132.887 12.2C133.287 12.5467 133.487 13 133.487 13.56C133.487 13.96 133.367 14.4 133.127 14.88C132.914 15.36 132.634 15.7733 132.287 16.12C131.94 16.4667 131.567 16.64 131.167 16.64C130.927 16.64 130.674 16.5867 130.407 16.48C130.14 16.3467 129.874 16.2133 129.607 16.08C129.34 15.9733 129.074 15.8667 128.807 15.76C128.567 15.6267 128.34 15.56 128.127 15.56C127.434 15.56 126.834 15.8133 126.327 16.32C125.82 16.8267 125.567 17.84 125.567 19.36V25.88C125.567 26.4133 125.727 26.8133 126.047 27.08C126.394 27.32 126.94 27.5467 127.687 27.76C127.98 27.84 128.194 27.9467 128.327 28.08C128.487 28.1867 128.567 28.3467 128.567 28.56C128.567 28.9333 128.34 29.12 127.887 29.12C127.087 29.12 126.26 29.08 125.407 29C124.554 28.9467 123.78 28.92 123.087 28.92C122.634 28.92 122.167 28.9333 121.687 28.96C121.234 28.9867 120.754 29.0133 120.247 29.04C119.767 29.0933 119.26 29.12 118.727 29.12Z" fill="#876DEF"/>
</svg>
